<?xml version="1.0" encoding="UTF-8"?>
<svg id="Layer_1" xmlns="http://www.w3.org/2000/svg" version="1.1" viewBox="0 0 416.72 580.37">
  <!-- Generator: Adobe Illustrator 29.2.1, SVG Export Plug-In . SVG Version: 2.1.0 Build 116)  -->
  <defs>
    <style>
      .st0 {
        fill: #9e1f53;
      }

      .st1 {
        fill: #b24c9c;
      }
    </style>
  </defs>
  <path class="st0" d="M250.8,535.88c-6.67,6.31-38.8,43.21-43.99,44.33-6.52,1.41-8.46-6.72-11.82-9.76-58.41-53.15-111.43-112.64-168.03-167.85-75.11-98.24,18.25-236.72,138.27-205.44,63.4,16.52,87.92,76.61,121.39,125.98-136.86-11.24-168.56,180.16-35.82,212.74Z"/>
  <path class="st1" d="M390.55,396.87l-127.39,128.02c-31.75,2.57-67.35-26.55-78.99-55.61-24.27-60.58,13.16-128.76,78.99-134.87,7.05-.67,29.55-1.25,35.31.43,7.03,2.04,15.11,13.23,27.54,15,33.07,4.72,57.47-2.75,78-29.04,4.7-6.02,3.34-15.54,12.47-13.3,1.99,32.89-5.82,63.23-25.93,89.38Z"/>
  <path class="st0" d="M168.97,182.18C55.6,183.82,47.4,15.61,151.76,1.35c132.76-18.16,141.03,179.06,17.22,180.83Z"/>
  <path class="st1" d="M415.9,267.73c-9.52,64.84-104.85,70.08-123.72,8.46-10.05-32.89,10.03-76.41,45.36-82.35,46.68-7.84,85.37,26.04,78.36,73.88Z"/>
</svg>